<svg width="20" height="21" viewBox="0 0 20 21" fill="none" xmlns="http://www.w3.org/2000/svg">
<path d="M3.85495 15.1987C4.70426 14.5492 5.6535 14.0371 6.70265 13.6624C7.7518 13.2877 8.85091 13.1003 9.99998 13.1003C11.1491 13.1003 12.2482 13.2877 13.2973 13.6624C14.3465 14.0371 15.2957 14.5492 16.145 15.1987C16.7279 14.5159 17.1817 13.7415 17.5064 12.8755C17.8312 12.0096 17.9935 11.0853 17.9935 10.1028C17.9935 7.88789 17.215 6.00191 15.6579 4.44484C14.1008 2.88776 12.2149 2.10923 9.99998 2.10923C7.78511 2.10923 5.89913 2.88776 4.34206 4.44484C2.78498 6.00191 2.00644 7.88789 2.00644 10.1028C2.00644 11.0853 2.16881 12.0096 2.49355 12.8755C2.81829 13.7415 3.27209 14.5159 3.85495 15.1987ZM9.99998 11.102C9.01745 11.102 8.18895 10.7647 7.51449 10.0903C6.84004 9.41582 6.50281 8.58733 6.50281 7.60479C6.50281 6.62225 6.84004 5.79375 7.51449 5.11929C8.18895 4.44484 9.01745 4.10761 9.99998 4.10761C10.9825 4.10761 11.811 4.44484 12.4855 5.11929C13.1599 5.79375 13.4972 6.62225 13.4972 7.60479C13.4972 8.58733 13.1599 9.41582 12.4855 10.0903C11.811 10.7647 10.9825 11.102 9.99998 11.102ZM9.99998 20.0947C8.61777 20.0947 7.31882 19.8324 6.10313 19.3078C4.88745 18.7833 3.82997 18.0713 2.9307 17.1721C2.03142 16.2728 1.3195 15.2153 0.794921 13.9996C0.270345 12.7839 0.00805664 11.485 0.00805664 10.1028C0.00805664 8.72055 0.270345 7.4216 0.794921 6.20592C1.3195 4.99023 2.03142 3.93275 2.9307 3.03348C3.82997 2.13421 4.88745 1.42228 6.10313 0.897704C7.31882 0.373128 8.61777 0.11084 9.99998 0.11084C11.3822 0.11084 12.6812 0.373128 13.8968 0.897704C15.1125 1.42228 16.17 2.13421 17.0693 3.03348C17.9685 3.93275 18.6805 4.99023 19.205 6.20592C19.7296 7.4216 19.9919 8.72055 19.9919 10.1028C19.9919 11.485 19.7296 12.7839 19.205 13.9996C18.6805 15.2153 17.9685 16.2728 17.0693 17.1721C16.17 18.0713 15.1125 18.7833 13.8968 19.3078C12.6812 19.8324 11.3822 20.0947 9.99998 20.0947ZM9.99998 18.0963C10.8826 18.0963 11.7153 17.9672 12.498 17.7091C13.2807 17.451 13.9968 17.0805 14.6462 16.5975C13.9968 16.1146 13.2807 15.744 12.498 15.4859C11.7153 15.2278 10.8826 15.0987 9.99998 15.0987C9.11736 15.0987 8.2847 15.2278 7.502 15.4859C6.7193 15.744 6.00321 16.1146 5.35374 16.5975C6.00321 17.0805 6.7193 17.451 7.502 17.7091C8.2847 17.9672 9.11736 18.0963 9.99998 18.0963ZM9.99998 9.10358C10.433 9.10358 10.791 8.96202 11.0741 8.67892C11.3572 8.39581 11.4988 8.03777 11.4988 7.60479C11.4988 7.1718 11.3572 6.81376 11.0741 6.53065C10.791 6.24755 10.433 6.106 9.99998 6.106C9.567 6.106 9.20896 6.24755 8.92585 6.53065C8.64275 6.81376 8.5012 7.1718 8.5012 7.60479C8.5012 8.03777 8.64275 8.39581 8.92585 8.67892C9.20896 8.96202 9.567 9.10358 9.99998 9.10358Z" fill="black"/>
</svg>
