<svg width="26" height="26" viewBox="0 0 26 26" fill="none" xmlns="http://www.w3.org/2000/svg">
<path d="M5.31875 19.3214C6.38039 18.5096 7.56693 17.8695 8.87837 17.4011C10.1898 16.9327 11.5637 16.6986 13 16.6986C14.4364 16.6986 15.8103 16.9327 17.1217 17.4011C18.4332 17.8695 19.6197 18.5096 20.6813 19.3214C21.4099 18.468 21.9772 17.5 22.3831 16.4175C22.789 15.3351 22.992 14.1798 22.992 12.9516C22.992 10.183 22.0188 7.82552 20.0725 5.87918C18.1261 3.93283 15.7686 2.95966 13 2.95966C10.2314 2.95966 7.87397 3.93283 5.92763 5.87918C3.98129 7.82552 3.00811 10.183 3.00811 12.9516C3.00811 14.1798 3.21107 15.3351 3.617 16.4175C4.02292 17.5 4.59017 18.468 5.31875 19.3214ZM13 14.2006C11.7719 14.2006 10.7362 13.779 9.89318 12.936C9.05011 12.0929 8.62857 11.0573 8.62857 9.82911C8.62857 8.60094 9.05011 7.56531 9.89318 6.72225C10.7362 5.87918 11.7719 5.45764 13 5.45764C14.2282 5.45764 15.2638 5.87918 16.1069 6.72225C16.95 7.56531 17.3715 8.60094 17.3715 9.82911C17.3715 11.0573 16.95 12.0929 16.1069 12.936C15.2638 13.779 14.2282 14.2006 13 14.2006ZM13 25.4415C11.2723 25.4415 9.64858 25.1136 8.12898 24.4579C6.60937 23.8022 5.28752 22.9123 4.16343 21.7882C3.03934 20.6641 2.14943 19.3423 1.49371 17.8227C0.837992 16.303 0.510132 14.6794 0.510132 12.9516C0.510132 11.2238 0.837992 9.60013 1.49371 8.08052C2.14943 6.56092 3.03934 5.23907 4.16343 4.11498C5.28752 2.99088 6.60937 2.10098 8.12898 1.44526C9.64858 0.789538 11.2723 0.461678 13 0.461678C14.7278 0.461678 16.3515 0.789538 17.8711 1.44526C19.3907 2.10098 20.7126 2.99088 21.8367 4.11498C22.9607 5.23907 23.8507 6.56092 24.5064 8.08052C25.1621 9.60013 25.49 11.2238 25.49 12.9516C25.49 14.6794 25.1621 16.303 24.5064 17.8227C23.8507 19.3423 22.9607 20.6641 21.8367 21.7882C20.7126 22.9123 19.3907 23.8022 17.8711 24.4579C16.3515 25.1136 14.7278 25.4415 13 25.4415ZM13 22.9435C14.1033 22.9435 15.1441 22.7822 16.1225 22.4595C17.1009 22.1369 17.996 21.6737 18.8079 21.07C17.996 20.4664 17.1009 20.0032 16.1225 19.6805C15.1441 19.3579 14.1033 19.1965 13 19.1965C11.8968 19.1965 10.8559 19.3579 9.87756 19.6805C8.89919 20.0032 8.00408 20.4664 7.19223 21.07C8.00408 21.6737 8.89919 22.1369 9.87756 22.4595C10.8559 22.7822 11.8968 22.9435 13 22.9435ZM13 11.7026C13.5413 11.7026 13.9888 11.5257 14.3427 11.1718C14.6966 10.8179 14.8735 10.3703 14.8735 9.82911C14.8735 9.28788 14.6966 8.84033 14.3427 8.48645C13.9888 8.13256 13.5413 7.95562 13 7.95562C12.4588 7.95562 12.0113 8.13256 11.6574 8.48645C11.3035 8.84033 11.1266 9.28788 11.1266 9.82911C11.1266 10.3703 11.3035 10.8179 11.6574 11.1718C12.0113 11.5257 12.4588 11.7026 13 11.7026Z" fill="black"/>
</svg>
