<svg width="18" height="19" viewBox="0 0 18 19" fill="none" xmlns="http://www.w3.org/2000/svg">
<path d="M2.00565 15.6468C2.90492 14.7642 3.94991 14.0689 5.14062 13.561C6.33132 13.0531 7.61778 12.7991 9 12.7991C10.3822 12.7991 11.6687 13.0531 12.8594 13.561C14.0501 14.0689 15.0951 14.7642 15.9943 15.6468V2.80716H2.00565V15.6468ZM9 10.8007C9.96588 10.8007 10.7902 10.4593 11.473 9.77653C12.1558 9.09375 12.4972 8.26942 12.4972 7.30353C12.4972 6.33764 12.1558 5.51331 11.473 4.83053C10.7902 4.14775 9.96588 3.80636 9 3.80636C8.03411 3.80636 7.20978 4.14775 6.527 4.83053C5.84421 5.51331 5.50282 6.33764 5.50282 7.30353C5.50282 8.26942 5.84421 9.09375 6.527 9.77653C7.20978 10.4593 8.03411 10.8007 9 10.8007ZM2.00565 18.7942C1.45609 18.7942 0.98564 18.5986 0.594289 18.2072C0.202938 17.8159 0.00726318 17.3454 0.00726318 16.7959V2.80716C0.00726318 2.25761 0.202938 1.78715 0.594289 1.3958C0.98564 1.00445 1.45609 0.808777 2.00565 0.808777H15.9943C16.5439 0.808777 17.0144 1.00445 17.4057 1.3958C17.7971 1.78715 17.9927 2.25761 17.9927 2.80716V16.7959C17.9927 17.3454 17.7971 17.8159 17.4057 18.2072C17.0144 18.5986 16.5439 18.7942 15.9943 18.7942H2.00565ZM3.72926 16.7959H14.2707C13.538 16.1464 12.7095 15.651 11.7852 15.3096C10.861 14.9682 9.93258 14.7975 9 14.7975C8.06742 14.7975 7.13067 14.9682 6.18977 15.3096C5.24886 15.651 4.42869 16.1464 3.72926 16.7959ZM9 8.80232C8.58367 8.80232 8.22979 8.6566 7.93836 8.36517C7.64692 8.07374 7.50121 7.71986 7.50121 7.30353C7.50121 6.8872 7.64692 6.53332 7.93836 6.24189C8.22979 5.95046 8.58367 5.80474 9 5.80474C9.41633 5.80474 9.77021 5.95046 10.0616 6.24189C10.3531 6.53332 10.4988 6.8872 10.4988 7.30353C10.4988 7.71986 10.3531 8.07374 10.0616 8.36517C9.77021 8.6566 9.41633 8.80232 9 8.80232Z" fill="black"/>
</svg>
