<svg width="18" height="18" viewBox="0 0 18 18" fill="none" xmlns="http://www.w3.org/2000/svg">
<path d="M3.87914 13.3494C4.58691 12.8081 5.37793 12.3814 6.25223 12.0691C7.12652 11.7569 8.04245 11.6008 9.00001 11.6008C9.95757 11.6008 10.8735 11.7569 11.7478 12.0691C12.6221 12.3814 13.4131 12.8081 14.1209 13.3494C14.6066 12.7804 14.9848 12.1351 15.2554 11.4134C15.526 10.6918 15.6613 9.92157 15.6613 9.10279C15.6613 7.25706 15.0125 5.68541 13.7149 4.38785C12.4174 3.09029 10.8457 2.44151 9.00001 2.44151C7.15428 2.44151 5.58263 3.09029 4.28507 4.38785C2.9875 5.68541 2.33872 7.25706 2.33872 9.10279C2.33872 9.92157 2.47403 10.6918 2.74464 11.4134C3.01526 12.1351 3.39343 12.7804 3.87914 13.3494ZM9.00001 9.93545C8.18122 9.93545 7.49081 9.65443 6.92876 9.09238C6.36672 8.53034 6.08569 7.83992 6.08569 7.02114C6.08569 6.20236 6.36672 5.51194 6.92876 4.9499C7.49081 4.38785 8.18122 4.10683 9.00001 4.10683C9.81879 4.10683 10.5092 4.38785 11.0712 4.9499C11.6333 5.51194 11.9143 6.20236 11.9143 7.02114C11.9143 7.83992 11.6333 8.53034 11.0712 9.09238C10.5092 9.65443 9.81879 9.93545 9.00001 9.93545ZM9.00001 17.4294C7.84816 17.4294 6.7657 17.2108 5.75263 16.7737C4.73956 16.3365 3.85833 15.7433 3.10893 14.9939C2.35954 14.2445 1.76627 13.3632 1.32912 12.3502C0.891974 11.3371 0.673401 10.2546 0.673401 9.10279C0.673401 7.95094 0.891974 6.86848 1.32912 5.85541C1.76627 4.84234 2.35954 3.96111 3.10893 3.21172C3.85833 2.46232 4.73956 1.86905 5.75263 1.4319C6.7657 0.994757 7.84816 0.776184 9.00001 0.776184C10.1519 0.776184 11.2343 0.994757 12.2474 1.4319C13.2605 1.86905 14.1417 2.46232 14.8911 3.21172C15.6405 3.96111 16.2337 4.84234 16.6709 5.85541C17.108 6.86848 17.3266 7.95094 17.3266 9.10279C17.3266 10.2546 17.108 11.3371 16.6709 12.3502C16.2337 13.3632 15.6405 14.2445 14.8911 14.9939C14.1417 15.7433 13.2605 16.3365 12.2474 16.7737C11.2343 17.2108 10.1519 17.4294 9.00001 17.4294ZM9.00001 15.7641C9.73552 15.7641 10.4294 15.6565 11.0817 15.4414C11.7339 15.2263 12.3306 14.9175 12.8719 14.5151C12.3306 14.1126 11.7339 13.8039 11.0817 13.5887C10.4294 13.3736 9.73552 13.2661 9.00001 13.2661C8.26449 13.2661 7.57061 13.3736 6.91835 13.5887C6.2661 13.8039 5.66936 14.1126 5.12813 14.5151C5.66936 14.9175 6.2661 15.2263 6.91835 15.4414C7.57061 15.6565 8.26449 15.7641 9.00001 15.7641ZM9.00001 8.27013C9.36083 8.27013 9.6592 8.15217 9.89512 7.91625C10.131 7.68033 10.249 7.38196 10.249 7.02114C10.249 6.66032 10.131 6.36195 9.89512 6.12603C9.6592 5.89011 9.36083 5.77215 9.00001 5.77215C8.63919 5.77215 8.34082 5.89011 8.1049 6.12603C7.86898 6.36195 7.75102 6.66032 7.75102 7.02114C7.75102 7.38196 7.86898 7.68033 8.1049 7.91625C8.34082 8.15217 8.63919 8.27013 9.00001 8.27013Z" fill="white"/>
</svg>
