<svg width="22" height="17" viewBox="0 0 22 17" fill="none" xmlns="http://www.w3.org/2000/svg">
<path d="M13.9976 16.724C11.766 16.724 9.87591 15.9497 8.32716 14.4009C6.77841 12.8522 6.00404 10.962 6.00404 8.7305C6.00404 6.51562 6.77841 4.62964 8.32716 3.07257C9.87591 1.51549 11.766 0.736954 13.9976 0.736954C16.2125 0.736954 18.0984 1.51549 19.6555 3.07257C21.2126 4.62964 21.9911 6.51562 21.9911 8.7305C21.9911 10.962 21.2126 12.8522 19.6555 14.4009C18.0984 15.9497 16.2125 16.724 13.9976 16.724ZM13.9976 14.7257C15.6629 14.7257 17.0784 14.1428 18.2441 12.9771C19.4099 11.8113 19.9927 10.3958 19.9927 8.7305C19.9927 7.06517 19.4099 5.64965 18.2441 4.48393C17.0784 3.3182 15.6629 2.73534 13.9976 2.73534C12.3323 2.73534 10.9167 3.3182 9.75101 4.48393C8.58529 5.64965 8.00242 7.06517 8.00242 8.7305C8.00242 10.3958 8.58529 11.8113 9.75101 12.9771C10.9167 14.1428 12.3323 14.7257 13.9976 14.7257ZM16.2707 12.4525L17.6946 11.0286L14.9968 8.33082V4.73372H12.9984V9.15515L16.2707 12.4525ZM1.00807 5.73292V3.73453H5.00484V5.73292H1.00807ZM0.00888062 9.72969V7.7313H5.00484V9.72969H0.00888062ZM1.00807 13.7265V11.7281H5.00484V13.7265H1.00807Z" fill="black"/>
</svg>
