<svg width="30" height="30" viewBox="0 0 30 30" fill="none" xmlns="http://www.w3.org/2000/svg">
<path d="M14.9999 29.0651L10.8158 24.9435H5.00802V19.1356L0.886353 14.9515L5.00802 10.7674V4.9596H10.8158L14.9999 0.837929L19.1841 4.9596H24.9919V10.7674L29.1135 14.9515L24.9919 19.1356V24.9435H19.1841L14.9999 29.0651ZM14.9999 21.1965C16.7277 21.1965 18.2005 20.5876 19.4183 19.3698C20.636 18.1521 21.2449 16.6793 21.2449 14.9515C21.2449 13.2238 20.636 11.751 19.4183 10.5332C18.2005 9.31545 16.7277 8.70657 14.9999 8.70657C13.2722 8.70657 11.7994 9.31545 10.5816 10.5332C9.36388 11.751 8.755 13.2238 8.755 14.9515C8.755 16.6793 9.36388 18.1521 10.5816 19.3698C11.7994 20.5876 13.2722 21.1965 14.9999 21.1965ZM14.9999 18.6985C13.9591 18.6985 13.0744 18.3342 12.3458 17.6056C11.6173 16.8771 11.253 15.9924 11.253 14.9515C11.253 13.9107 11.6173 13.026 12.3458 12.2974C13.0744 11.5688 13.9591 11.2046 14.9999 11.2046C16.0408 11.2046 16.9255 11.5688 17.6541 12.2974C18.3826 13.026 18.7469 13.9107 18.7469 14.9515C18.7469 15.9924 18.3826 16.8771 17.6541 17.6056C16.9255 18.3342 16.0408 18.6985 14.9999 18.6985ZM14.9999 25.5679L18.1224 22.4455H22.4939V18.074L25.6164 14.9515L22.4939 11.829V7.45758H18.1224L14.9999 4.3351L11.8775 7.45758H7.506V11.829L4.38353 14.9515L7.506 18.074V22.4455H11.8775L14.9999 25.5679Z" fill="#050505"/>
</svg>
