<svg width="21" height="20" viewBox="0 0 21 20" fill="none" xmlns="http://www.w3.org/2000/svg">
<path d="M4.25504 19.3615V17.2799L5.29587 16.239H2.17339C1.60093 16.239 1.11088 16.0352 0.703221 15.6276C0.295564 15.2199 0.0917358 14.7298 0.0917358 14.1574V2.7083C0.0917358 2.13585 0.295564 1.64579 0.703221 1.23813C1.11088 0.830476 1.60093 0.626648 2.17339 0.626648H10.5V2.7083H2.17339V14.1574H18.8266V11.0349H20.9083V14.1574C20.9083 14.7298 20.7044 15.2199 20.2968 15.6276C19.8891 16.0352 19.3991 16.239 18.8266 16.239H15.7041L16.7449 17.2799V19.3615H4.25504ZM13.6225 13.1166L8.41834 7.91243L9.8755 6.45527L12.5816 9.1354V0.626648H14.6633V9.1354L17.3694 6.45527L18.8266 7.91243L13.6225 13.1166Z" fill="#2563EB"/>
</svg>
