<svg width="18" height="21" viewBox="0 0 18 21" fill="none" xmlns="http://www.w3.org/2000/svg">
<path d="M2.00565 20.5126C1.45609 20.5126 0.98564 20.317 0.594289 19.9256C0.202938 19.5343 0.00726318 19.0638 0.00726318 18.5142V4.52555C0.00726318 3.97599 0.202938 3.50554 0.594289 3.11419C0.98564 2.72284 1.45609 2.52716 2.00565 2.52716H3.00484V0.528778H5.00323V2.52716H12.9968V0.528778H14.9952V2.52716H15.9943C16.5439 2.52716 17.0144 2.72284 17.4057 3.11419C17.7971 3.50554 17.9927 3.97599 17.9927 4.52555V18.5142C17.9927 19.0638 17.7971 19.5343 17.4057 19.9256C17.0144 20.317 16.5439 20.5126 15.9943 20.5126H2.00565ZM2.00565 18.5142H15.9943V8.52232H2.00565V18.5142ZM2.00565 6.52394H15.9943V4.52555H2.00565V6.52394ZM9 12.5191C8.71689 12.5191 8.47959 12.4233 8.28807 12.2318C8.09656 12.0403 8.00081 11.803 8.00081 11.5199C8.00081 11.2368 8.09656 10.9995 8.28807 10.808C8.47959 10.6165 8.71689 10.5207 9 10.5207C9.2831 10.5207 9.52041 10.6165 9.71192 10.808C9.90344 10.9995 9.99919 11.2368 9.99919 11.5199C9.99919 11.803 9.90344 12.0403 9.71192 12.2318C9.52041 12.4233 9.2831 12.5191 9 12.5191ZM5.00323 12.5191C4.72012 12.5191 4.48281 12.4233 4.2913 12.2318C4.09979 12.0403 4.00403 11.803 4.00403 11.5199C4.00403 11.2368 4.09979 10.9995 4.2913 10.808C4.48281 10.6165 4.72012 10.5207 5.00323 10.5207C5.28633 10.5207 5.52364 10.6165 5.71515 10.808C5.90666 10.9995 6.00242 11.2368 6.00242 11.5199C6.00242 11.803 5.90666 12.0403 5.71515 12.2318C5.52364 12.4233 5.28633 12.5191 5.00323 12.5191ZM12.9968 12.5191C12.7137 12.5191 12.4764 12.4233 12.2848 12.2318C12.0933 12.0403 11.9976 11.803 11.9976 11.5199C11.9976 11.2368 12.0933 10.9995 12.2848 10.808C12.4764 10.6165 12.7137 10.5207 12.9968 10.5207C13.2799 10.5207 13.5172 10.6165 13.7087 10.808C13.9002 10.9995 13.996 11.2368 13.996 11.5199C13.996 11.803 13.9002 12.0403 13.7087 12.2318C13.5172 12.4233 13.2799 12.5191 12.9968 12.5191ZM9 16.5159C8.71689 16.5159 8.47959 16.4201 8.28807 16.2286C8.09656 16.0371 8.00081 15.7998 8.00081 15.5167C8.00081 15.2336 8.09656 14.9963 8.28807 14.8047C8.47959 14.6132 8.71689 14.5175 9 14.5175C9.2831 14.5175 9.52041 14.6132 9.71192 14.8047C9.90344 14.9963 9.99919 15.2336 9.99919 15.5167C9.99919 15.7998 9.90344 16.0371 9.71192 16.2286C9.52041 16.4201 9.2831 16.5159 9 16.5159ZM5.00323 16.5159C4.72012 16.5159 4.48281 16.4201 4.2913 16.2286C4.09979 16.0371 4.00403 15.7998 4.00403 15.5167C4.00403 15.2336 4.09979 14.9963 4.2913 14.8047C4.48281 14.6132 4.72012 14.5175 5.00323 14.5175C5.28633 14.5175 5.52364 14.6132 5.71515 14.8047C5.90666 14.9963 6.00242 15.2336 6.00242 15.5167C6.00242 15.7998 5.90666 16.0371 5.71515 16.2286C5.52364 16.4201 5.28633 16.5159 5.00323 16.5159ZM12.9968 16.5159C12.7137 16.5159 12.4764 16.4201 12.2848 16.2286C12.0933 16.0371 11.9976 15.7998 11.9976 15.5167C11.9976 15.2336 12.0933 14.9963 12.2848 14.8047C12.4764 14.6132 12.7137 14.5175 12.9968 14.5175C13.2799 14.5175 13.5172 14.6132 13.7087 14.8047C13.9002 14.9963 13.996 15.2336 13.996 15.5167C13.996 15.7998 13.9002 16.0371 13.7087 16.2286C13.5172 16.4201 13.2799 16.5159 12.9968 16.5159Z" fill="black"/>
</svg>
