<svg width="21" height="23" viewBox="0 0 21 23" fill="none" xmlns="http://www.w3.org/2000/svg">
<path d="M2.21422 6.83242H16.7858V4.75077H2.21422V6.83242ZM2.21422 21.404C1.64177 21.404 1.15171 21.2002 0.744054 20.7925C0.336397 20.3848 0.132568 19.8948 0.132568 19.3223V4.75077C0.132568 4.17831 0.336397 3.68826 0.744054 3.2806C1.15171 2.87294 1.64177 2.66912 2.21422 2.66912H3.25505V0.587463H5.3367V2.66912H13.6633V0.587463H15.745V2.66912H16.7858C17.3582 2.66912 17.8483 2.87294 18.2559 3.2806C18.6636 3.68826 18.8674 4.17831 18.8674 4.75077V10.6575C18.5378 10.5013 18.1996 10.3712 17.8526 10.2671C17.5057 10.1631 17.1501 10.085 16.7858 10.033V8.91407H2.21422V19.3223H8.77142C8.89285 19.704 9.03597 20.0683 9.20076 20.4152C9.36556 20.7621 9.56072 21.0917 9.78623 21.404H2.21422ZM15.745 22.4448C14.3051 22.4448 13.0778 21.9374 12.063 20.9226C11.0482 19.9078 10.5408 18.6805 10.5408 17.2407C10.5408 15.8009 11.0482 14.5736 12.063 13.5588C13.0778 12.544 14.3051 12.0365 15.745 12.0365C17.1848 12.0365 18.4121 12.544 19.4269 13.5588C20.4417 14.5736 20.9491 15.8009 20.9491 17.2407C20.9491 18.6805 20.4417 19.9078 19.4269 20.9226C18.4121 21.9374 17.1848 22.4448 15.745 22.4448ZM17.4883 19.7126L18.2169 18.9841L16.2654 17.0325V14.1182H15.2245V17.4488L17.4883 19.7126Z" fill="#EF4444"/>
</svg>
