<svg width="22" height="22" viewBox="0 0 22 22" fill="none" xmlns="http://www.w3.org/2000/svg">
<path d="M2.00727 21.4352C1.45771 21.4352 0.987257 21.2395 0.595906 20.8482C0.204556 20.4568 0.00888062 19.9864 0.00888062 19.4368V8.44569H2.00727V19.4368H18.9935V21.4352H2.00727ZM6.00404 17.4384C5.45448 17.4384 4.98403 17.2428 4.59268 16.8514C4.20133 16.4601 4.00565 15.9896 4.00565 15.44V4.44892H9.00162V2.45053C9.00162 1.90098 9.19729 1.43052 9.58864 1.03917C9.97999 0.647824 10.4504 0.452148 11 0.452148H14.9968C15.5463 0.452148 16.0168 0.647824 16.4081 1.03917C16.7995 1.43052 16.9952 1.90098 16.9952 2.45053V4.44892H21.9911V15.44C21.9911 15.9896 21.7954 16.4601 21.4041 16.8514C21.0127 17.2428 20.5423 17.4384 19.9927 17.4384H6.00404ZM6.00404 15.44H19.9927V6.44731H6.00404V15.44ZM11 4.44892H14.9968V2.45053H11V4.44892Z" fill="black"/>
</svg>
