<svg width="21" height="22" viewBox="0 0 21 22" fill="none" xmlns="http://www.w3.org/2000/svg">
<path d="M9.0429 15.7835L16.3807 8.44567L14.9236 6.98851L9.0429 12.8692L6.07654 9.90282L4.61939 11.36L9.0429 15.7835ZM10.5001 21.4039C9.06025 21.4039 7.70717 21.1307 6.44083 20.5843C5.1745 20.0379 4.07296 19.2963 3.13621 18.3595C2.19947 17.4228 1.45788 16.3212 0.911447 15.0549C0.365014 13.7886 0.0917969 12.4355 0.0917969 10.9957C0.0917969 9.55588 0.365014 8.20281 0.911447 6.93647C1.45788 5.67013 2.19947 4.56859 3.13621 3.63185C4.07296 2.6951 5.1745 1.95352 6.44083 1.40708C7.70717 0.86065 9.06025 0.587433 10.5001 0.587433C11.9399 0.587433 13.2929 0.86065 14.5593 1.40708C15.8256 1.95352 16.9272 2.6951 17.8639 3.63185C18.8006 4.56859 19.5422 5.67013 20.0887 6.93647C20.6351 8.20281 20.9083 9.55588 20.9083 10.9957C20.9083 12.4355 20.6351 13.7886 20.0887 15.0549C19.5422 16.3212 18.8006 17.4228 17.8639 18.3595C16.9272 19.2963 15.8256 20.0379 14.5593 20.5843C13.2929 21.1307 11.9399 21.4039 10.5001 21.4039ZM10.5001 19.3223C12.8246 19.3223 14.7935 18.5157 16.4067 16.9024C18.02 15.2891 18.8267 13.3202 18.8267 10.9957C18.8267 8.67118 18.02 6.70228 16.4067 5.089C14.7935 3.47572 12.8246 2.66908 10.5001 2.66908C8.17554 2.66908 6.20665 3.47572 4.59337 5.089C2.98009 6.70228 2.17345 8.67118 2.17345 10.9957C2.17345 13.3202 2.98009 15.2891 4.59337 16.9024C6.20665 18.5157 8.17554 19.3223 10.5001 19.3223Z" fill="#22C55E"/>
</svg>
