<svg width="22" height="26" viewBox="0 0 22 26" fill="none" xmlns="http://www.w3.org/2000/svg">
<path d="M12 25.4415L11.6877 21.6945H11.3755C8.41951 21.6945 5.91112 20.6641 3.85029 18.6033C1.78945 16.5424 0.759033 14.034 0.759033 11.0781C0.759033 8.12216 1.78945 5.61377 3.85029 3.55293C5.91112 1.4921 8.41951 0.461678 11.3755 0.461678C12.8534 0.461678 14.2325 0.737496 15.5127 1.28913C16.793 1.84077 17.917 2.60057 18.885 3.56854C19.853 4.53651 20.6128 5.6606 21.1644 6.94082C21.7161 8.22103 21.9919 9.60013 21.9919 11.0781C21.9919 12.6393 21.7369 14.1381 21.2269 15.5745C20.7169 17.0108 20.0195 18.3431 19.1348 19.5712C18.2501 20.7994 17.1989 21.9131 15.9811 22.9123C14.7633 23.9115 13.4363 24.7546 12 25.4415ZM14.4979 20.8827C15.9759 19.6337 17.1781 18.1713 18.1044 16.4956C19.0307 14.8199 19.4939 13.014 19.4939 11.0781C19.4939 8.8091 18.7081 6.88878 17.1364 5.31713C15.5648 3.74548 13.6445 2.95966 11.3755 2.95966C9.10646 2.95966 7.18613 3.74548 5.61449 5.31713C4.04284 6.88878 3.25702 8.8091 3.25702 11.0781C3.25702 13.3471 4.04284 15.2674 5.61449 16.8391C7.18613 18.4107 9.10646 19.1965 11.3755 19.1965H14.4979V20.8827ZM11.3442 17.9163C11.6981 17.9163 12 17.7914 12.2498 17.5416C12.4995 17.2918 12.6244 16.99 12.6244 16.6361C12.6244 16.2822 12.4995 15.9804 12.2498 15.7306C12 15.4808 11.6981 15.3559 11.3442 15.3559C10.9904 15.3559 10.6885 15.4808 10.4387 15.7306C10.1889 15.9804 10.064 16.2822 10.064 16.6361C10.064 16.99 10.1889 17.2918 10.4387 17.5416C10.6885 17.7914 10.9904 17.9163 11.3442 17.9163ZM10.4387 13.9508H12.3122C12.3122 13.3263 12.3747 12.8891 12.4995 12.6393C12.6244 12.3895 13.02 11.9316 13.6861 11.2655C14.0608 10.8908 14.373 10.4848 14.6228 10.0477C14.8726 9.61054 14.9975 9.14217 14.9975 8.64257C14.9975 7.58093 14.6384 6.7847 13.9203 6.25387C13.2021 5.72305 12.3538 5.45764 11.3755 5.45764C10.4595 5.45764 9.68932 5.71264 9.06482 6.22265C8.44033 6.73265 8.00318 7.35194 7.75338 8.08052L9.50197 8.76747C9.60605 8.41359 9.80381 8.06491 10.0952 7.72144C10.3867 7.37797 10.8134 7.20623 11.3755 7.20623C11.9375 7.20623 12.359 7.36235 12.6401 7.6746C12.9211 7.98685 13.0616 8.33032 13.0616 8.70502C13.0616 9.0589 12.9575 9.37635 12.7493 9.65737C12.5412 9.9384 12.2914 10.2246 12 10.5161C11.2714 11.1406 10.829 11.6349 10.6729 11.9992C10.5168 12.3635 10.4387 13.014 10.4387 13.9508Z" fill="#050505"/>
</svg>
