<svg width="32" height="33" viewBox="0 0 32 33" fill="none" xmlns="http://www.w3.org/2000/svg">
<path d="M16 0.975792C12.8355 0.975792 9.74206 1.91266 7.11088 3.66793C4.47969 5.42319 2.42893 7.91802 1.21793 10.8369C0.00692588 13.7558 -0.309928 16.9677 0.307435 20.0664C0.924798 23.1651 2.44865 26.0114 4.68629 28.2454C6.92393 30.4794 9.77485 32.0008 12.8786 32.6172C15.9822 33.2336 19.1993 32.9172 22.1229 31.7082C25.0465 30.4991 27.5454 28.4517 29.3035 25.8248C31.0616 23.1978 32 20.1094 32 16.95L24 16.95C24 18.5297 23.5308 20.0739 22.6518 21.3874C21.7727 22.7008 20.5233 23.7246 19.0615 24.3291C17.5997 24.9336 15.9911 25.0918 14.4393 24.7836C12.8874 24.4754 11.462 23.7147 10.3431 22.5977C9.22432 21.4807 8.4624 20.0575 8.15372 18.5082C7.84504 16.9588 8.00346 15.3529 8.60896 13.8934C9.21447 12.434 10.2398 11.1866 11.5554 10.3089C12.871 9.43132 14.4177 8.96288 16 8.96288V0.975792Z" fill="black"/>
</svg>
