<svg width="16" height="5" viewBox="0 0 16 5" fill="none" xmlns="http://www.w3.org/2000/svg">
<path d="M2.00486 4.79828C1.4553 4.79828 0.984846 4.60261 0.593495 4.21126C0.202145 3.81991 0.00646973 3.34946 0.00646973 2.7999C0.00646973 2.25034 0.202145 1.77989 0.593495 1.38854C0.984846 0.997189 1.4553 0.801514 2.00486 0.801514C2.55441 0.801514 3.02486 0.997189 3.41622 1.38854C3.80757 1.77989 4.00324 2.25034 4.00324 2.7999C4.00324 3.34946 3.80757 3.81991 3.41622 4.21126C3.02486 4.60261 2.55441 4.79828 2.00486 4.79828ZM8.00001 4.79828C7.45046 4.79828 6.98 4.60261 6.58865 4.21126C6.1973 3.81991 6.00163 3.34946 6.00163 2.7999C6.00163 2.25034 6.1973 1.77989 6.58865 1.38854C6.98 0.997189 7.45046 0.801514 8.00001 0.801514C8.54957 0.801514 9.02002 0.997189 9.41137 1.38854C9.80272 1.77989 9.9984 2.25034 9.9984 2.7999C9.9984 3.34946 9.80272 3.81991 9.41137 4.21126C9.02002 4.60261 8.54957 4.79828 8.00001 4.79828ZM13.9952 4.79828C13.4456 4.79828 12.9752 4.60261 12.5838 4.21126C12.1925 3.81991 11.9968 3.34946 11.9968 2.7999C11.9968 2.25034 12.1925 1.77989 12.5838 1.38854C12.9752 0.997189 13.4456 0.801514 13.9952 0.801514C14.5447 0.801514 15.0152 0.997189 15.4065 1.38854C15.7979 1.77989 15.9936 2.25034 15.9936 2.7999C15.9936 3.34946 15.7979 3.81991 15.4065 4.21126C15.0152 4.60261 14.5447 4.79828 13.9952 4.79828Z" fill="black"/>
</svg>
