<svg width="16" height="5" viewBox="0 0 16 5" fill="none" xmlns="http://www.w3.org/2000/svg">
<path d="M2.00484 4.09955C1.45529 4.09955 0.984835 3.90388 0.593484 3.51253C0.202134 3.12118 0.00645828 2.65072 0.00645828 2.10117C0.00645828 1.55161 0.202134 1.08116 0.593484 0.689809C0.984835 0.298458 1.45529 0.102783 2.00484 0.102783C2.5544 0.102783 3.02485 0.298458 3.4162 0.689809C3.80755 1.08116 4.00323 1.55161 4.00323 2.10117C4.00323 2.65072 3.80755 3.12118 3.4162 3.51253C3.02485 3.90388 2.5544 4.09955 2.00484 4.09955ZM8 4.09955C7.45044 4.09955 6.97999 3.90388 6.58864 3.51253C6.19729 3.12118 6.00162 2.65072 6.00162 2.10117C6.00162 1.55161 6.19729 1.08116 6.58864 0.689809C6.97999 0.298458 7.45044 0.102783 8 0.102783C8.54956 0.102783 9.02001 0.298458 9.41136 0.689809C9.80271 1.08116 9.99839 1.55161 9.99839 2.10117C9.99839 2.65072 9.80271 3.12118 9.41136 3.51253C9.02001 3.90388 8.54956 4.09955 8 4.09955ZM13.9952 4.09955C13.4456 4.09955 12.9751 3.90388 12.5838 3.51253C12.1924 3.12118 11.9968 2.65072 11.9968 2.10117C11.9968 1.55161 12.1924 1.08116 12.5838 0.689809C12.9751 0.298458 13.4456 0.102783 13.9952 0.102783C14.5447 0.102783 15.0152 0.298458 15.4065 0.689809C15.7979 1.08116 15.9935 1.55161 15.9935 2.10117C15.9935 2.65072 15.7979 3.12118 15.4065 3.51253C15.0152 3.90388 14.5447 4.09955 13.9952 4.09955Z" fill="black"/>
</svg>
