<svg width="22" height="26" viewBox="0 0 22 26" fill="none" xmlns="http://www.w3.org/2000/svg">
<path d="M9.99998 25.4415C9.31304 25.4415 8.72497 25.1969 8.23579 24.7077C7.7466 24.2185 7.502 23.6305 7.502 22.9435H12.498C12.498 23.6305 12.2534 24.2185 11.7642 24.7077C11.275 25.1969 10.6869 25.4415 9.99998 25.4415ZM0.00805664 21.6945V19.1965H2.50604V10.4536C2.50604 8.72583 3.02645 7.19062 4.06728 5.84795C5.1081 4.50529 6.46118 3.62579 8.1265 3.20946V2.33516C8.1265 1.81475 8.30864 1.3724 8.67293 1.00811C9.03722 0.643822 9.47957 0.461678 9.99998 0.461678C10.5204 0.461678 10.9627 0.643822 11.327 1.00811C11.6913 1.3724 11.8735 1.81475 11.8735 2.33516V2.74109C11.6445 3.19905 11.478 3.66742 11.3739 4.1462C11.2698 4.62498 11.2282 5.11417 11.249 5.61377C11.0408 5.57213 10.8378 5.5357 10.6401 5.50448C10.4423 5.47325 10.229 5.45764 9.99998 5.45764C8.62609 5.45764 7.44996 5.94683 6.47159 6.92521C5.49321 7.90358 5.00402 9.07972 5.00402 10.4536V19.1965H14.9959V11.1718C15.3706 11.3383 15.7714 11.4684 16.1981 11.5621C16.6248 11.6558 17.0568 11.7026 17.4939 11.7026V19.1965H19.9919V21.6945H0.00805664ZM17.4939 9.20461C16.4531 9.20461 15.5684 8.84033 14.8398 8.11175C14.1112 7.38317 13.747 6.49847 13.747 5.45764C13.747 4.41682 14.1112 3.53211 14.8398 2.80354C15.5684 2.07496 16.4531 1.71067 17.4939 1.71067C18.5348 1.71067 19.4195 2.07496 20.148 2.80354C20.8766 3.53211 21.2409 4.41682 21.2409 5.45764C21.2409 6.49847 20.8766 7.38317 20.148 8.11175C19.4195 8.84033 18.5348 9.20461 17.4939 9.20461Z" fill="#050505"/>
</svg>
