<svg width="20" height="20" viewBox="0 0 20 20" fill="none" xmlns="http://www.w3.org/2000/svg">
<path d="M16.6591 17.3586L17.3586 16.6591L15.4851 14.7856V11.9879H14.4859V15.1853L16.6591 17.3586ZM1.99597 17.9831C1.44642 17.9831 0.975965 17.7874 0.584615 17.396C0.193264 17.0047 -0.00241089 16.5342 -0.00241089 15.9847V1.99597C-0.00241089 1.44642 0.193264 0.975965 0.584615 0.584615C0.975965 0.193264 1.44642 -0.00241089 1.99597 -0.00241089H15.9847C16.5342 -0.00241089 17.0047 0.193264 17.396 0.584615C17.7874 0.975965 17.9831 1.44642 17.9831 1.99597V8.69057C17.6666 8.54069 17.3419 8.41163 17.0088 8.30338C16.6758 8.19513 16.3344 8.11603 15.9847 8.06607V1.99597H1.99597V15.9847H8.04109C8.09105 16.351 8.17015 16.7008 8.2784 17.0338C8.38665 17.3669 8.51571 17.6833 8.66559 17.9831H1.99597ZM1.99597 15.9847V1.99597V8.06607V7.99113V15.9847ZM3.99436 13.9863H8.06607C8.11603 13.6366 8.19513 13.2952 8.30338 12.9621C8.41163 12.6291 8.53236 12.3043 8.66559 11.9879H3.99436V13.9863ZM3.99436 9.98952H10.0894C10.6223 9.48992 11.2177 9.07359 11.8755 8.74053C12.5333 8.40746 13.2369 8.18264 13.9863 8.06607V7.99113H3.99436V9.98952ZM3.99436 5.99275H13.9863V3.99436H3.99436V5.99275ZM14.9855 19.9814C13.6033 19.9814 12.4251 19.4943 11.4508 18.5201C10.4766 17.5459 9.98952 16.3677 9.98952 14.9855C9.98952 13.6033 10.4766 12.4251 11.4508 11.4508C12.4251 10.4766 13.6033 9.98952 14.9855 9.98952C16.3677 9.98952 17.5459 10.4766 18.5201 11.4508C19.4943 12.4251 19.9814 13.6033 19.9814 14.9855C19.9814 16.3677 19.4943 17.5459 18.5201 18.5201C17.5459 19.4943 16.3677 19.9814 14.9855 19.9814Z" fill="black"/>
</svg>
