<svg width="22" height="15" viewBox="0 0 22 15" fill="none" xmlns="http://www.w3.org/2000/svg">
<path d="M2.00727 14.7152C1.45771 14.7152 0.987257 14.5195 0.595906 14.1281C0.204556 13.7368 0.00888062 13.2663 0.00888062 12.7168V2.72486C0.00888062 2.1753 0.204556 1.70485 0.595906 1.3135C0.987257 0.922146 1.45771 0.726471 2.00727 0.726471H11.9992C12.5487 0.726471 13.0192 0.922146 13.4106 1.3135C13.8019 1.70485 13.9976 2.1753 13.9976 2.72486V12.7168C13.9976 13.2663 13.8019 13.7368 13.4106 14.1281C13.0192 14.5195 12.5487 14.7152 11.9992 14.7152H2.00727ZM2.00727 12.7168H11.9992V2.72486H2.00727V12.7168ZM15.996 14.7152V0.726471H17.9944V14.7152H15.996ZM19.9927 14.7152V0.726471H21.9911V14.7152H19.9927Z" fill="black"/>
</svg>
