<svg width="22" height="19" viewBox="0 0 22 19" fill="none" xmlns="http://www.w3.org/2000/svg">
<path d="M11 7.80394L7.5028 4.30676L11 0.809586L14.4971 4.30676L11 7.80394ZM0.0088501 18.7951V14.7983C0.0088501 14.2321 0.204525 13.7575 0.595876 13.3744C0.987226 12.9914 1.45768 12.7999 2.00724 12.7999H5.27959C5.61266 12.7999 5.92907 12.8832 6.22883 13.0497C6.52858 13.2162 6.77005 13.441 6.95324 13.7242C7.43618 14.3736 8.03154 14.8815 8.7393 15.2479C9.44706 15.6143 10.2006 15.7975 11 15.7975C11.816 15.7975 12.5779 15.6143 13.2856 15.2479C13.9934 14.8815 14.5804 14.3736 15.0467 13.7242C15.2632 13.441 15.5172 13.2162 15.8086 13.0497C16.1 12.8832 16.4039 12.7999 16.7204 12.7999H19.9927C20.5589 12.7999 21.0335 12.9914 21.4166 13.3744C21.7996 13.7575 21.9911 14.2321 21.9911 14.7983V18.7951H14.9967V16.5219C14.4139 16.9382 13.7852 17.2546 13.1108 17.4711C12.4363 17.6876 11.7327 17.7959 11 17.7959C10.2839 17.7959 9.58445 17.6835 8.90167 17.4586C8.21888 17.2338 7.58606 16.9132 7.0032 16.4969V18.7951H0.0088501ZM3.00643 11.8007C2.17377 11.8007 1.46601 11.5093 0.883144 10.9264C0.300281 10.3435 0.0088501 9.63579 0.0088501 8.80313C0.0088501 7.95381 0.300281 7.24189 0.883144 6.66735C1.46601 6.09282 2.17377 5.80555 3.00643 5.80555C3.85574 5.80555 4.56767 6.09282 5.1422 6.66735C5.71674 7.24189 6.00401 7.95381 6.00401 8.80313C6.00401 9.63579 5.71674 10.3435 5.1422 10.9264C4.56767 11.5093 3.85574 11.8007 3.00643 11.8007ZM18.9935 11.8007C18.1609 11.8007 17.4531 11.5093 16.8702 10.9264C16.2874 10.3435 15.9959 9.63579 15.9959 8.80313C15.9959 7.95381 16.2874 7.24189 16.8702 6.66735C17.4531 6.09282 18.1609 5.80555 18.9935 5.80555C19.8428 5.80555 20.5548 6.09282 21.1293 6.66735C21.7038 7.24189 21.9911 7.95381 21.9911 8.80313C21.9911 9.63579 21.7038 10.3435 21.1293 10.9264C20.5548 11.5093 19.8428 11.8007 18.9935 11.8007Z" fill="black"/>
</svg>
