<svg width="18" height="18" viewBox="0 0 18 18" fill="none" xmlns="http://www.w3.org/2000/svg">
<path d="M1.99594 17.9831C1.44639 17.9831 0.975935 17.7874 0.584584 17.396C0.193234 17.0047 -0.00244141 16.5342 -0.00244141 15.9847V1.99597C-0.00244141 1.44642 0.193234 0.975965 0.584584 0.584615C0.975935 0.193264 1.44639 -0.00241089 1.99594 -0.00241089H15.9846C16.5342 -0.00241089 17.0047 0.193264 17.396 0.584615C17.7874 0.975965 17.983 1.44642 17.983 1.99597V15.9847C17.983 16.5342 17.7874 17.0047 17.396 17.396C17.0047 17.7874 16.5342 17.9831 15.9846 17.9831H1.99594ZM1.99594 15.9847H7.9911V1.99597H1.99594V15.9847ZM9.98949 15.9847H15.9846V8.99032H9.98949V15.9847ZM9.98949 6.99194H15.9846V1.99597H9.98949V6.99194Z" fill="black"/>
</svg>
