<svg width="16" height="16" viewBox="0 0 16 16" fill="none" xmlns="http://www.w3.org/2000/svg">
<path d="M5.57386 0.526248C3.97522 1.08083 2.59654 2.13346 1.64035 3.5295C0.684163 4.92554 0.200854 6.59143 0.261418 8.28245C0.321982 9.97348 0.923226 11.6005 1.97684 12.9246C3.03045 14.2486 4.48089 15.1999 6.11511 15.6387C7.44002 15.9806 8.82813 15.9956 10.1601 15.6825C11.3668 15.4115 12.4823 14.8317 13.3976 14C14.3502 13.1079 15.0417 11.9731 15.3976 10.7175C15.7845 9.35208 15.8534 7.91616 15.5989 6.52H8.15886V9.60625H12.4676C12.3815 10.0985 12.197 10.5683 11.9251 10.9875C11.6531 11.4068 11.2994 11.7669 10.8851 12.0462C10.359 12.3943 9.76586 12.6285 9.14387 12.7337C8.52005 12.8497 7.88019 12.8497 7.25636 12.7337C6.6241 12.603 6.02599 12.3421 5.50011 11.9675C4.6553 11.3695 4.02096 10.5199 3.68762 9.54C3.34863 8.54174 3.34863 7.45951 3.68762 6.46125C3.9249 5.76152 4.31716 5.12442 4.83511 4.5975C5.42785 3.98343 6.17828 3.54449 7.00406 3.32884C7.82984 3.11319 8.69906 3.12916 9.51637 3.375C10.1548 3.57099 10.7387 3.91342 11.2214 4.375C11.7072 3.89166 12.1922 3.40708 12.6764 2.92125C12.9264 2.66 13.1989 2.41125 13.4451 2.14375C12.7083 1.45809 11.8435 0.924569 10.9001 0.573748C9.18224 -0.0500151 7.30259 -0.0667781 5.57386 0.526248Z" fill="white"/>
</svg>
