<svg width="13" height="7" viewBox="0 0 13 7" fill="none" xmlns="http://www.w3.org/2000/svg">
<path d="M4.57372 0.526245C6.3023 -0.067184 8.18196 -0.0508623 9.89997 0.572495C10.8435 0.925699 11.708 1.46179 12.4437 2.14999C12.1937 2.41749 11.93 2.66749 11.675 2.92749C11.19 3.41166 10.7054 3.89416 10.2212 4.37499C9.73853 3.91342 9.15468 3.57098 8.51622 3.37499C7.69919 3.1283 6.82999 3.1114 6.00399 3.32617C5.178 3.54094 4.42711 3.97907 3.83372 4.59249C3.31576 5.11941 2.9235 5.75652 2.68622 6.45624L0.0949707 4.44999C1.02248 2.6107 2.62841 1.20377 4.57372 0.526245Z" fill="#E33629"/>
</svg>
