<svg width="13" height="7" viewBox="0 0 13 7" fill="none" xmlns="http://www.w3.org/2000/svg">
<path d="M0.09375 2.55001C0.957917 1.88334 1.82167 1.21334 2.685 0.540009C3.01901 1.52026 3.65426 2.36988 4.5 2.96751C5.02751 3.34034 5.62691 3.59917 6.26 3.72751C6.88382 3.8435 7.52368 3.8435 8.1475 3.72751C8.76949 3.62222 9.3626 3.38805 9.88875 3.04001C10.725 3.69251 11.565 4.34001 12.4012 4.99251C11.4861 5.82467 10.3705 6.40486 9.16375 6.67626C7.83176 6.98939 6.44365 6.97438 5.11875 6.63251C4.07088 6.35272 3.09209 5.8595 2.24375 5.18376C1.34583 4.47087 0.612444 3.57247 0.09375 2.55001Z" fill="#319F43"/>
</svg>
